<svg height="512" viewBox="0 0 58 58" width="512" xmlns="http://www.w3.org/2000/svg"><g id="049---Office-Board" fill="none"><path id="Rectangle-path" d="m13 44h32v4h-32z" fill="#805333"/><path id="Rectangle-path" d="m10 37h4v18h-4z" fill="#cf976a"/><rect id="Rectangle-path" fill="#a56a43" height="4" rx="2" width="10" x="7" y="54"/><path id="Rectangle-path" d="m44 37h4v18h-4z" fill="#cf976a" transform="matrix(-1 0 0 -1 92 92)"/><path id="Rectangle-path" d="m10 37h4v4h-4z" fill="#cb8252"/><path id="Rectangle-path" d="m44 37h4v4h-4z" fill="#cb8252" transform="matrix(-1 0 0 -1 92 78)"/><rect id="Rectangle-path" fill="#a56a43" height="4" rx="2" transform="matrix(-1 0 0 -1 92 112)" width="10" x="41" y="54"/><rect id="Rectangle-path" fill="#a56a43" height="38" rx="2" width="58"/><path id="Rectangle-path" d="m14-6h30v50h-30z" fill="#35495e" transform="matrix(0 1 -1 0 48 -10)"/><path id="Shape" d="m54 35h-50c-.55228475 0-1-.4477153-1-1v-30c0-.55228475.44771525-1 1-1h50c.5522847 0 1 .44771525 1 1v30c0 .5522847-.4477153 1-1 1zm-49-2h48v-28h-48z" fill="#2c2f38"/><path id="Shape" d="m9 8c-.55228475 0-1 .44771525-1 1v6c0 .5522847.44771525 1 1 1h6c.5522847 0 1-.4477153 1-1v-3l-3.71-3.71c-.1862606-.18474416-.4376601-.28889538-.7-.29z" fill="#ff5364"/><path id="Shape" d="m28 20c-.5522847 0-1 .4477153-1 1v6c0 .5522847.4477153 1 1 1h6c.5522847 0 1-.4477153 1-1v-3l-3.71-3.71c-.1862606-.1847442-.4376601-.2888954-.7-.29z" fill="#f3d55b"/><path id="Shape" d="m17 13h-1v2c0 .5522847-.4477153 1-1 1h-5v4c0 .5522847.4477153 1 1 1h6c.5522847 0 1-.4477153 1-1v-6c0-.5522847-.4477153-1-1-1z" fill="#7ed09e"/><path id="Shape" d="m39 8c-.5522847 0-1 .44771525-1 1v6c0 .5522847.4477153 1 1 1h6c.5522847 0 1-.4477153 1-1v-3l-3.71-3.71c-.1862606-.18474416-.4376601-.28889538-.7-.29z" fill="#7ed09e"/><path id="Shape" d="m47 13h-1v2c0 .5522847-.4477153 1-1 1h-5v4c0 .5522847.4477153 1 1 1h6c.5522847 0 1-.4477153 1-1v-6c0-.5522847-.4477153-1-1-1z" fill="#ff5364"/><path id="Shape" d="m49 18h-1v2c0 .5522847-.4477153 1-1 1h-5v4c0 .5522847.4477153 1 1 1h6c.5522847 0 1-.4477153 1-1v-6c0-.5522847-.4477153-1-1-1z" fill="#955ba5"/><g fill="#ecf0f1"><path id="Shape" d="m28 9h-8c-.5522847 0-1-.44771525-1-1s.4477153-1 1-1h8c.5522847 0 1 .44771525 1 1s-.4477153 1-1 1z"/><path id="Shape" d="m34 13h-11c-.5522847 0-1-.4477153-1-1s.4477153-1 1-1h11c.5522847 0 1 .4477153 1 1s-.4477153 1-1 1z"/><path id="Shape" d="m23 26h-15c-.55228475 0-1-.4477153-1-1s.44771525-1 1-1h15c.5522847 0 1 .4477153 1 1s-.4477153 1-1 1z"/><path id="Shape" d="m17 30h-9c-.55228475 0-1-.4477153-1-1s.44771525-1 1-1h9c.5522847 0 1 .4477153 1 1s-.4477153 1-1 1z"/></g></g></svg>