<svg height="477pt" viewBox="-5 0 477 477.26" width="477pt" xmlns="http://www.w3.org/2000/svg"><path d="m467.96875 128.441406v305.058594c.003906 24.167969-19.589844 43.761719-43.757812 43.761719h-380.320313c-24.167969 0-43.761719-19.59375-43.761719-43.761719v-305.058594zm0 0" fill="#00acea"/><path d="m82.761719 49.921875h341.449219c24.167968-.003906 43.761718 19.589844 43.757812 43.757813v34.761718h-467.839844v-34.761718c0-24.167969 19.59375-43.761719 43.761719-43.757813zm0 0" fill="#00efd1"/><path d="m82.761719 57.933594c-2.121094.003906-4.15625-.835938-5.65625-2.332032-1.5-1.5-2.34375-3.53125-2.34375-5.652343v-41.949219c0-4.417969 3.578125-8 8-8 4.417969 0 8 3.582031 8 8v41.921875c0 4.417969-3.582031 8.007813-8 8.011719zm0 0" fill="#fedb41"/><path d="m391.578125 57.933594c-2.117187.003906-4.152344-.835938-5.652344-2.332032-1.5-1.5-2.34375-3.53125-2.347656-5.652343v-41.949219c0-4.417969 3.582031-8 8-8 4.421875 0 8 3.582031 8 8v41.921875c.003906 4.417969-3.578125 8.007813-8 8.011719zm0 0" fill="#fedb41"/><path d="m347.519531 197.058594v211.140625c0 13.480469-10.929687 24.410156-24.410156 24.410156h-165.917969v-259.960937h165.917969c13.480469.003906 24.410156 10.929687 24.410156 24.410156zm-36 162.589844v-151.699219h-124.441406v151.699219zm0 0" fill="#fedb41"/><g fill="#00efd1"><path d="m187.078125 207.949219h124.441406v151.699219h-124.441406zm0 0"/><path d="m157.191406 172.648438v259.960937h-12.203125c-13.480469 0-24.40625-10.929687-24.410156-24.410156v-211.140625c.003906-13.480469 10.929687-24.40625 24.410156-24.410156zm0 0"/><path d="m311.519531 404.601562h-124.441406c-4.417969 0-8-3.582031-8-8 0-4.417968 3.582031-8 8-8h124.441406c4.417969 0 8 3.582032 8 8 0 4.417969-3.582031 8-8 8zm0 0"/></g></svg>