<svg id="Capa_1" enable-background="new 0 0 512 512" height="512" viewBox="0 0 512 512" width="512" xmlns="http://www.w3.org/2000/svg"><g><path d="m256 0h-159.49c-13.79 0-25 11.21-25 25v361.42c0 2.83.33 5.6.98 8.28 1.49 6.19 4.66 11.86 9.28 16.47l90.58 90.58c4.61 4.61 10.29 7.78 16.47 9.27 2.67.65 5.45.98 8.27.98h58.91l46-303z" fill="#e6f7ff"/><path d="m440.49 25v462c0 13.79-11.21 25-25 25h-159.49v-512h159.49c13.79 0 25 11.21 25 25z" fill="#cce6ff"/><path d="m188.82 404.68v106.34c-6.18-1.49-11.85-4.66-16.46-9.27l-90.59-90.58c-4.61-4.61-7.78-10.28-9.27-16.47h14v-.02h92.32c5.52 0 10 4.48 10 10z" fill="#8fb2ef"/><path d="m256 278 9.5 15-9.5 15h-94c-8.28 0-15-6.72-15-15s6.72-15 15-15z" fill="#fd6c5f"/><path d="m365 293c0 8.28-6.72 15-15 15h-94v-30h94c8.28 0 15 6.72 15 15z" fill="#fd465f"/><path d="m256 379.68 9.5 15-9.5 15c-8.28 0-15-6.71-15-15 0-8.28 6.72-15 15-15z" fill="#fd6c5f"/><path d="m365 394.68c0 8.29-6.72 15-15 15h-94v-30h94c8.28 0 15 6.72 15 15z" fill="#fd465f"/><path d="m252.84 209.89-33.26-88.15c-.06-.14-.11-.28-.16-.41-5.8-14.09-25.76-14.04-31.51.03-.05.12-.09.23-.13.34l-33.57 88.15c-3.75 9.82 3.54 20.34 14.01 20.34 6.04 0 11.74-3.68 14.02-9.67l4.68-12.29h33.23l4.63 12.25c2.92 7.75 11.57 11.66 19.33 8.74 4.64-1.76 7.9-5.56 9.14-10 .904-3.184.677-6.544-.41-9.33zm-54.49-31.66 5.26-13.82 5.22 13.82z" fill="#fd6c5f"/><path d="m274.546 125.75h20.713v20.713c0 8.284 6.716 15 15 15s15-6.716 15-15v-20.713h19.874c8.284 0 15-6.716 15-15s-6.716-15-15-15h-19.874v-19.874c0-8.284-6.716-15-15-15s-15 6.716-15 15v19.874h-20.713c-8.284 0-15 6.716-15 15s6.716 15 15 15z" fill="#fd465f"/></g></svg>